<?xml version="1.0" encoding="utf-8"?>
<!-- Generator: Adobe Illustrator 21.0.0, SVG Export Plug-In . SVG Version: 6.00 Build 0)  -->
<svg version="1.1" id="Layer_1" xmlns="http://www.w3.org/2000/svg" xmlns:xlink="http://www.w3.org/1999/xlink" x="0px" y="0px"
	 viewBox="0 0 528 372" style="enable-background:new 0 0 528 372;" xml:space="preserve">
<style type="text/css">
	.st0{fill:#FFFFFF;}
</style>
<g>
	<circle class="st0" cx="42.5" cy="47" r="38"/>
	<circle class="st0" cx="42.5" cy="186" r="38"/>
	<circle class="st0" cx="42.5" cy="325" r="38"/>
	<path class="st0" d="M508.6,79.5H138.4c-8.2,0-14.9-6.7-14.9-14.9V29.4c0-8.2,6.7-14.9,14.9-14.9h370.3c8.2,0,14.9,6.7,14.9,14.9
		v35.3C523.5,72.8,516.8,79.5,508.6,79.5z"/>
	<path class="st0" d="M411.6,218.5H138.4c-8.2,0-14.9-6.7-14.9-14.9v-35.3c0-8.2,6.7-14.9,14.9-14.9h273.3c8.2,0,14.9,6.7,14.9,14.9
		v35.3C426.5,211.8,419.8,218.5,411.6,218.5z"/>
	<path class="st0" d="M314.6,357.5H138.4c-8.2,0-14.9-6.7-14.9-14.9v-35.3c0-8.2,6.7-14.9,14.9-14.9h176.3c8.2,0,14.9,6.7,14.9,14.9
		v35.3C329.5,350.8,322.8,357.5,314.6,357.5z"/>
</g>
</svg>
